<svg width="48" height="48" viewBox="0 0 48 48" fill="none" xmlns="http://www.w3.org/2000/svg">
<path d="M24 48C37.2548 48 48 37.2548 48 24C48 10.7452 37.2548 0 24 0C10.7452 0 0 10.7452 0 24C0 37.2548 10.7452 48 24 48Z" fill="#5AB4C5"/>
<path d="M29.603 35.7814H24.1184V24.8739H29.603V35.7814ZM26.2131 33.6852H27.5071V26.9689H26.2131V33.6852Z" fill="white"/>
<path d="M36.4621 21.5801C36.3225 21.5801 36.1841 21.552 36.0556 21.4977L18.2656 14.0177C18.1385 13.9643 18.0233 13.8863 17.9263 13.7883C17.8293 13.6902 17.7525 13.574 17.7005 13.4463C17.6484 13.3186 17.6221 13.1819 17.6229 13.044C17.6238 12.9061 17.6523 12.7697 17.706 12.6426C17.7594 12.5155 17.8368 12.4002 17.9348 12.3032C18.0329 12.2062 18.1495 12.1295 18.2772 12.0775C18.405 12.0254 18.5416 11.9991 18.6795 12C18.8174 12.0009 18.9534 12.029 19.0805 12.0826L36.8704 19.5614C36.9975 19.6148 37.1134 19.6927 37.2103 19.7908C37.3073 19.8888 37.3836 20.005 37.4356 20.1328C37.4876 20.2605 37.514 20.3972 37.5131 20.5351C37.5122 20.673 37.4843 20.8094 37.4307 20.9364C37.3509 21.1274 37.2161 21.2905 37.0437 21.4051C36.8713 21.5197 36.6691 21.5806 36.4621 21.5801Z" fill="white"/>
<path d="M11.0217 25.4515C10.8126 25.4498 10.6093 25.384 10.4388 25.2631C10.2682 25.1422 10.1391 24.9719 10.0683 24.7752C9.97072 24.5172 9.97794 24.2313 10.0884 23.9786C10.1989 23.7258 10.4035 23.5263 10.6591 23.4227L20.5706 19.5565C20.697 19.5083 20.8316 19.4859 20.9667 19.4904C21.1019 19.495 21.2345 19.5265 21.3573 19.5831C21.4802 19.6397 21.5907 19.7202 21.6821 19.82C21.7734 19.9197 21.844 20.0366 21.8896 20.164C21.9863 20.422 21.9783 20.7076 21.8676 20.96C21.7569 21.2124 21.5523 21.4116 21.2969 21.5152L11.3854 25.3827C11.2693 25.4274 11.1461 25.4507 11.0217 25.4515Z" fill="white"/>
<path d="M36.0529 35.7814H19.8694V13.9976C19.8788 13.7259 19.9931 13.4685 20.1886 13.2796C20.3841 13.0907 20.6455 12.9851 20.9174 12.9851C21.1892 12.9851 21.4506 13.0907 21.6461 13.2796C21.8417 13.4685 21.9566 13.7259 21.9659 13.9976V33.6851H33.9557V19.9239C33.9651 19.6522 34.0794 19.3947 34.2749 19.2058C34.4704 19.0169 34.7318 18.9114 35.0037 18.9114C35.2755 18.9114 35.5369 19.0169 35.7324 19.2058C35.928 19.3947 36.0423 19.6522 36.0516 19.9239L36.0529 35.7814Z" fill="white"/>
<path d="M21.2141 35.7826H12.4104L12.3842 23.4964C12.3842 23.2185 12.4948 22.9519 12.6912 22.7552C12.8876 22.5586 13.1542 22.448 13.4321 22.4476C13.7102 22.448 13.9765 22.5586 14.1731 22.7552C14.3697 22.9518 14.4804 23.2184 14.4807 23.4964L14.5033 33.6902H21.2092C21.3496 33.6853 21.4895 33.7087 21.6206 33.7591C21.7517 33.8094 21.8712 33.8857 21.9722 33.9833C22.0732 34.0809 22.1535 34.1978 22.2084 34.3271C22.2632 34.4563 22.292 34.5953 22.292 34.7358C22.292 34.8762 22.2632 35.0152 22.2084 35.1445C22.1535 35.2737 22.0732 35.3907 21.9722 35.4883C21.8712 35.5858 21.7517 35.6621 21.6206 35.7124C21.4895 35.7628 21.3496 35.7862 21.2092 35.7814L21.2141 35.7826Z" fill="white"/>
</svg>
