<svg width="30" height="30" viewBox="0 0 30 30" fill="none" xmlns="http://www.w3.org/2000/svg">
<g clip-path="url(#clip0_158_43)">
<path d="M20.8536 26.2787H15.369V15.3712H20.8536V26.2787ZM17.4637 24.1825H18.7577V17.4662H17.4637V24.1825Z" fill="#5AB4C5"/>
<path d="M27.7127 12.0775C27.5731 12.0774 27.4347 12.0494 27.3062 11.995L9.51626 4.51497C9.38911 4.46157 9.27388 4.38363 9.1769 4.28559C9.07992 4.18755 9.00309 4.07132 8.95107 3.9436C8.89906 3.81589 8.87267 3.67917 8.87356 3.54127C8.87445 3.40337 8.90291 3.267 8.95656 3.13996C9.00996 3.01282 9.08741 2.89747 9.18545 2.80049C9.28349 2.70351 9.40014 2.62679 9.52785 2.57477C9.65557 2.52276 9.79218 2.49645 9.93008 2.49734C10.068 2.49823 10.204 2.5263 10.3311 2.57996L28.121 10.0587C28.2481 10.1121 28.364 10.1901 28.461 10.2881C28.5579 10.3861 28.6342 10.5024 28.6862 10.6301C28.7382 10.7578 28.7646 10.8945 28.7637 11.0324C28.7628 11.1703 28.735 11.3067 28.6813 11.4337C28.6015 11.6247 28.4667 11.7878 28.2943 11.9024C28.1219 12.017 27.9197 12.0779 27.7127 12.0775Z" fill="#475259"/>
<path d="M2.27226 15.9488C2.06322 15.9471 1.85991 15.8813 1.68938 15.7604C1.51885 15.6395 1.38968 15.4692 1.31889 15.2725C1.22133 15.0145 1.22855 14.7286 1.33903 14.4759C1.44952 14.2231 1.65408 14.0236 1.90971 13.92L11.8212 10.0538C11.9476 10.0057 12.0822 9.98319 12.2173 9.98776C12.3525 9.99234 12.4851 10.0238 12.608 10.0804C12.7308 10.137 12.8414 10.2175 12.9327 10.3173C13.024 10.417 13.0947 10.534 13.1402 10.6613C13.237 10.9193 13.2289 11.205 13.1182 11.4573C13.0075 11.7097 12.8029 11.9089 12.5475 12.0125L2.63603 15.8801C2.51992 15.9247 2.39667 15.948 2.27226 15.9488Z" fill="#475259"/>
<path d="M27.3035 26.2787H11.12V4.49496C11.1294 4.22324 11.2437 3.96578 11.4392 3.77688C11.6347 3.58798 11.8961 3.48242 12.168 3.48242C12.4398 3.48242 12.7012 3.58798 12.8967 3.77688C13.0923 3.96578 13.2072 4.22324 13.2166 4.49496V24.1825H25.2063V10.4212C25.2157 10.1495 25.33 9.89202 25.5255 9.70312C25.721 9.51423 25.9824 9.40867 26.2543 9.40867C26.5262 9.40867 26.7875 9.51423 26.983 9.70312C27.1786 9.89202 27.2929 10.1495 27.3022 10.4212L27.3035 26.2787Z" fill="#475259"/>
<path d="M12.4647 26.2799H3.66101L3.63477 13.9937C3.63477 13.7158 3.74536 13.4492 3.94177 13.2526C4.13818 13.0559 4.40481 12.9453 4.68274 12.9449C4.96078 12.9453 5.2271 13.0559 5.42371 13.2525C5.62031 13.4491 5.73099 13.7157 5.73132 13.9937L5.75391 24.1875H12.4598C12.6002 24.1826 12.7401 24.206 12.8712 24.2564C13.0023 24.3068 13.1218 24.383 13.2228 24.4806C13.3238 24.5782 13.4041 24.6951 13.459 24.8244C13.5138 24.9537 13.5426 25.0926 13.5426 25.2331C13.5426 25.3735 13.5138 25.5125 13.459 25.6418C13.4041 25.7711 13.3238 25.888 13.2228 25.9856C13.1218 26.0831 13.0023 26.1594 12.8712 26.2098C12.7401 26.2601 12.6002 26.2835 12.4598 26.2787L12.4647 26.2799Z" fill="#475259"/>
</g>
<defs>
<clipPath id="clip0_158_43">
<rect width="30" height="30" fill="white"/>
</clipPath>
</defs>
</svg>
